<?xml version="1.0" ?><!DOCTYPE svg  PUBLIC '-//W3C//DTD SVG 1.1//EN'  'http://www.w3.org/Graphics/SVG/1.1/DTD/svg11.dtd'><svg enable-background="new 0 0 32 32"  id="Слой_1" version="1.1" viewBox="0 0 32 32"  xml:space="preserve" xmlns="http://www.w3.org/2000/svg" xmlns:xlink="http://www.w3.org/1999/xlink"><g id="Arrow_Dotted_Right"><path clip-rule="evenodd" d="M23.091,8.57C23.238,8.204,23.035,8.704,23.091,8.57L23.091,8.57z   " fill="#121313" fill-rule="evenodd"/><path clip-rule="evenodd" d="M31.714,15.283l-6.989-7.029   c-0.494-0.518-1.369-0.344-1.634,0.315c-0.056,0.134-0.079,0.276-0.075,0.419l0,13.98c-0.024,0.887,1.07,1.38,1.702,0.742   l6.996-6.999C32.095,16.326,32.095,15.669,31.714,15.283z M25,20.559v-9.118l4.595,4.556L25,20.559z" fill="#121313" fill-rule="evenodd"/><path clip-rule="evenodd" d="M19,13c-1.657,0-3,1.343-3,3s1.343,3,3,3c1.657,0,3-1.343,3-3   S20.657,13,19,13z M19,17c-0.552,0-1-0.448-1-1s0.448-1,1-1s1,0.448,1,1S19.552,17,19,17z" fill="#121313" fill-rule="evenodd"/><path clip-rule="evenodd" d="M11,13c-1.657,0-3,1.343-3,3s1.343,3,3,3c1.657,0,3-1.343,3-3   S12.657,13,11,13z M11,17c-0.552,0-1-0.448-1-1s0.448-1,1-1s1,0.448,1,1S11.552,17,11,17z" fill="#121313" fill-rule="evenodd"/><path clip-rule="evenodd" d="M3,13c-1.657,0-3,1.343-3,3s1.343,3,3,3c1.657,0,3-1.343,3-3   S4.657,13,3,13z M3,17c-0.552,0-1-0.448-1-1s0.448-1,1-1s1,0.448,1,1S3.552,17,3,17z" fill="#121313" fill-rule="evenodd"/></g><g/><g/><g/><g/><g/><g/></svg>