<?xml version="1.0" ?><!DOCTYPE svg  PUBLIC '-//W3C//DTD SVG 1.1//EN'  'http://www.w3.org/Graphics/SVG/1.1/DTD/svg11.dtd'><svg enable-background="new 0 0 32 32"  id="Слой_1" version="1.1" viewBox="0 0 32 32"  xml:space="preserve" xmlns="http://www.w3.org/2000/svg" xmlns:xlink="http://www.w3.org/1999/xlink"><g id="Arrow_Dotted_Right"><path clip-rule="evenodd" d="M8.909,23.382C8.762,23.748,8.965,23.248,8.909,23.382   L8.909,23.382z" fill="#121313" fill-rule="evenodd"/><path clip-rule="evenodd" d="M0.286,16.669l6.989,7.029c0.494,0.518,1.369,0.344,1.634-0.315   c0.056-0.134,0.079-0.276,0.075-0.419l0-13.98c0.024-0.887-1.07-1.38-1.702-0.742L0.286,15.24   C-0.095,15.626-0.095,16.283,0.286,16.669z M7,11.393v9.118l-4.595-4.556L7,11.393z" fill="#121313" fill-rule="evenodd"/><path clip-rule="evenodd" d="M13,18.952c1.657,0,3-1.343,3-3s-1.343-3-3-3   c-1.657,0-3,1.343-3,3S11.343,18.952,13,18.952z M13,14.952c0.552,0,1,0.448,1,1c0,0.552-0.448,1-1,1s-1-0.448-1-1   C12,15.4,12.448,14.952,13,14.952z" fill="#121313" fill-rule="evenodd"/><path clip-rule="evenodd" d="M21,18.952c1.657,0,3-1.343,3-3s-1.343-3-3-3   c-1.657,0-3,1.343-3,3S19.343,18.952,21,18.952z M21,14.952c0.552,0,1,0.448,1,1c0,0.552-0.448,1-1,1s-1-0.448-1-1   C20,15.4,20.448,14.952,21,14.952z" fill="#121313" fill-rule="evenodd"/><path clip-rule="evenodd" d="M29,18.952c1.657,0,3-1.343,3-3s-1.343-3-3-3   c-1.657,0-3,1.343-3,3S27.343,18.952,29,18.952z M29,14.952c0.552,0,1,0.448,1,1c0,0.552-0.448,1-1,1s-1-0.448-1-1   C28,15.4,28.448,14.952,29,14.952z" fill="#121313" fill-rule="evenodd"/></g><g/><g/><g/><g/><g/><g/></svg>