<svg height='300px' width='300px'  fill="#000000" xmlns="http://www.w3.org/2000/svg" xmlns:xlink="http://www.w3.org/1999/xlink" version="1.1" x="0px" y="0px" viewBox="0 0 100 100" enable-background="new 0 0 100 100" xml:space="preserve"><path d="M57.29,49.999l24.007-22.627c2.009-1.894,2.103-5.059,0.209-7.068c-1.895-2.008-5.058-2.102-7.068-0.209L50,43.128  L25.562,20.094c-2.01-1.894-5.173-1.8-7.068,0.209c-1.894,2.01-1.8,5.174,0.209,7.068l24.007,22.627L18.703,72.627  c-2.009,1.895-2.103,5.059-0.209,7.068c0.984,1.044,2.31,1.57,3.64,1.57c1.23,0,2.463-0.451,3.429-1.361L50,56.871l24.438,23.033  c0.966,0.91,2.198,1.361,3.429,1.361c1.329,0,2.656-0.527,3.64-1.57c1.894-2.01,1.8-5.174-0.209-7.068L57.29,49.999z"></path></svg>